# xmcd
#
# Track frame offsets: 
#        150
#        10635
#        20835
#        42184
#        55888
#        69842
#        90220
#        110226
#        128386
#        140380
#        154849
#        168001
#        185425
#        205609
#
# Disc length: 2904 seconds
#
# Revision: 0
# Processed by: cddbd v1.5.2PL0 Copyright (c) Steve Scherf et al.
# Submitted via: ExactAudioCopy v1.1
#
DISCID=a70b560e
DTITLE=South Mountain - South Mountain Cafe
DYEAR=2013
DGENRE=Country
TTITLE0=Stay all night
TTITLE1=Crooked stove pipe
TTITLE2=Honky tonk night time man
TTITLE3=Holding things together
TTITLE4=Crying my heart out over you
TTITLE5=Do me wrong
TTITLE6=John Hardy was an desprate little man
TTITLE7=Georgia
TTITLE8=What a way to live
TTITLE9=Satisfied with you
TTITLE10=Turkey in the straw
TTITLE11=White ring
TTITLE12=Workin' man's blues
TTITLE13=Humming bird
EXTD=
EXTT0=
EXTT1=
EXTT2=
EXTT3=
EXTT4=
EXTT5=
EXTT6=
EXTT7=
EXTT8=
EXTT9=
EXTT10=
EXTT11=
EXTT12=
EXTT13=
PLAYORDER=
